<?xml version="1.0" encoding="utf-8" standalone="no"?>
<!DOCTYPE svg PUBLIC "-//W3C//DTD SVG 1.1//EN"
  "http://www.w3.org/Graphics/SVG/1.1/DTD/svg11.dtd">
<svg xmlns:xlink="http://www.w3.org/1999/xlink" width="460.8pt" height="345.6pt" viewBox="0 0 460.8 345.6" xmlns="http://www.w3.org/2000/svg" version="1.1">
 <metadata>
  <rdf:RDF xmlns:dc="http://purl.org/dc/elements/1.1/" xmlns:cc="http://creativecommons.org/ns#" xmlns:rdf="http://www.w3.org/1999/02/22-rdf-syntax-ns#">
   <cc:Work>
    <dc:type rdf:resource="http://purl.org/dc/dcmitype/StillImage"/>
    <dc:date>2024-08-28T12:45:43.423147</dc:date>
    <dc:format>image/svg+xml</dc:format>
    <dc:creator>
     <cc:Agent>
      <dc:title>Matplotlib v3.9.0, https://matplotlib.org/</dc:title>
     </cc:Agent>
    </dc:creator>
   </cc:Work>
  </rdf:RDF>
 </metadata>
 <defs>
  <style type="text/css">*{stroke-linejoin: round; stroke-linecap: butt}</style>
 </defs>
 <g id="figure_1">
  <g id="patch_1">
   <path d="M 0 345.6 
L 460.8 345.6 
L 460.8 0 
L 0 0 
z
" style="fill: #ffffff"/>
  </g>
  <g id="axes_1">
   <g id="patch_2">
    <path d="M 62.387061 161.05968 
L 450 161.05968 
L 450 34.56 
L 62.387061 34.56 
z
" style="fill: #ffffff"/>
   </g>
   <g id="PolyCollection_1">
    <path d="M 80.005831 98.803538 
L 80.005831 103.843243 
L 87.053339 98.577244 
L 94.100847 94.834527 
L 101.148354 85.725282 
L 108.195862 70.397372 
L 115.24337 53.152228 
L 122.290878 51.15679 
L 129.338386 64.534107 
L 136.385894 79.100264 
L 143.433402 90.423795 
L 150.48091 98.280804 
L 157.528418 102.861367 
L 164.575926 103.941732 
L 171.623434 100.604784 
L 178.670942 91.20136 
L 185.71845 77.678309 
L 192.765958 74.25964 
L 199.813466 83.645519 
L 206.860974 95.552261 
L 213.908482 155.309694 
L 213.908482 150.269989 
L 213.908482 150.269989 
L 206.860974 90.512556 
L 199.813466 78.605814 
L 192.765958 69.219934 
L 185.71845 72.638604 
L 178.670942 86.161655 
L 171.623434 95.565079 
L 164.575926 98.902026 
L 157.528418 97.821661 
L 150.48091 93.241099 
L 143.433402 85.38409 
L 136.385894 74.060559 
L 129.338386 59.494402 
L 122.290878 46.117085 
L 115.24337 48.112523 
L 108.195862 65.357667 
L 101.148354 80.685577 
L 94.100847 89.794822 
L 87.053339 93.537539 
L 80.005831 98.803538 
z
" clip-path="url(#p8c623fdb56)" style="fill: #808080; fill-opacity: 0.2"/>
   </g>
   <g id="matplotlib.axis_1">
    <g id="xtick_1">
     <g id="line2d_1">
      <defs>
       <path id="mdab6f099f5" d="M 0 0 
L 0 3.5 
" style="stroke: #000000; stroke-width: 0.8"/>
      </defs>
      <g>
       <use xlink:href="#mdab6f099f5" x="80.005831" y="161.05968" style="stroke: #000000; stroke-width: 0.8"/>
      </g>
     </g>
    </g>
    <g id="xtick_2">
     <g id="line2d_2">
      <g>
       <use xlink:href="#mdab6f099f5" x="150.48091" y="161.05968" style="stroke: #000000; stroke-width: 0.8"/>
      </g>
     </g>
    </g>
    <g id="xtick_3">
     <g id="line2d_3">
      <g>
       <use xlink:href="#mdab6f099f5" x="220.95599" y="161.05968" style="stroke: #000000; stroke-width: 0.8"/>
      </g>
     </g>
    </g>
    <g id="xtick_4">
     <g id="line2d_4">
      <g>
       <use xlink:href="#mdab6f099f5" x="291.43107" y="161.05968" style="stroke: #000000; stroke-width: 0.8"/>
      </g>
     </g>
    </g>
    <g id="xtick_5">
     <g id="line2d_5">
      <g>
       <use xlink:href="#mdab6f099f5" x="361.90615" y="161.05968" style="stroke: #000000; stroke-width: 0.8"/>
      </g>
     </g>
    </g>
    <g id="xtick_6">
     <g id="line2d_6">
      <g>
       <use xlink:href="#mdab6f099f5" x="432.38123" y="161.05968" style="stroke: #000000; stroke-width: 0.8"/>
      </g>
     </g>
    </g>
   </g>
   <g id="matplotlib.axis_2">
    <g id="ytick_1">
     <g id="line2d_7">
      <defs>
       <path id="mf3b5d16987" d="M 0 0 
L -3.5 0 
" style="stroke: #000000; stroke-width: 0.8"/>
      </defs>
      <g>
       <use xlink:href="#mf3b5d16987" x="62.387061" y="139.213014" style="stroke: #000000; stroke-width: 0.8"/>
      </g>
     </g>
     <g id="text_1">
      <!-- 0.00 -->
      <g transform="translate(33.121436 143.012232) scale(0.1 -0.1)">
       <defs>
        <path id="DejaVuSans-30" d="M 2034 4250 
Q 1547 4250 1301 3770 
Q 1056 3291 1056 2328 
Q 1056 1369 1301 889 
Q 1547 409 2034 409 
Q 2525 409 2770 889 
Q 3016 1369 3016 2328 
Q 3016 3291 2770 3770 
Q 2525 4250 2034 4250 
z
M 2034 4750 
Q 2819 4750 3233 4129 
Q 3647 3509 3647 2328 
Q 3647 1150 3233 529 
Q 2819 -91 2034 -91 
Q 1250 -91 836 529 
Q 422 1150 422 2328 
Q 422 3509 836 4129 
Q 1250 4750 2034 4750 
z
" transform="scale(0.015625)"/>
        <path id="DejaVuSans-2e" d="M 684 794 
L 1344 794 
L 1344 0 
L 684 0 
L 684 794 
z
" transform="scale(0.015625)"/>
       </defs>
       <use xlink:href="#DejaVuSans-30"/>
       <use xlink:href="#DejaVuSans-2e" x="63.623047"/>
       <use xlink:href="#DejaVuSans-30" x="95.410156"/>
       <use xlink:href="#DejaVuSans-30" x="159.033203"/>
      </g>
     </g>
    </g>
    <g id="ytick_2">
     <g id="line2d_8">
      <g>
       <use xlink:href="#mf3b5d16987" x="62.387061" y="114.609362" style="stroke: #000000; stroke-width: 0.8"/>
      </g>
     </g>
     <g id="text_2">
      <!-- 0.05 -->
      <g transform="translate(33.121436 118.408581) scale(0.1 -0.1)">
       <defs>
        <path id="DejaVuSans-35" d="M 691 4666 
L 3169 4666 
L 3169 4134 
L 1269 4134 
L 1269 2991 
Q 1406 3038 1543 3061 
Q 1681 3084 1819 3084 
Q 2600 3084 3056 2656 
Q 3513 2228 3513 1497 
Q 3513 744 3044 326 
Q 2575 -91 1722 -91 
Q 1428 -91 1123 -41 
Q 819 9 494 109 
L 494 744 
Q 775 591 1075 516 
Q 1375 441 1709 441 
Q 2250 441 2565 725 
Q 2881 1009 2881 1497 
Q 2881 1984 2565 2268 
Q 2250 2553 1709 2553 
Q 1456 2553 1204 2497 
Q 953 2441 691 2322 
L 691 4666 
z
" transform="scale(0.015625)"/>
       </defs>
       <use xlink:href="#DejaVuSans-30"/>
       <use xlink:href="#DejaVuSans-2e" x="63.623047"/>
       <use xlink:href="#DejaVuSans-30" x="95.410156"/>
       <use xlink:href="#DejaVuSans-35" x="159.033203"/>
      </g>
     </g>
    </g>
    <g id="ytick_3">
     <g id="line2d_9">
      <g>
       <use xlink:href="#mf3b5d16987" x="62.387061" y="90.00571" style="stroke: #000000; stroke-width: 0.8"/>
      </g>
     </g>
     <g id="text_3">
      <!-- 0.10 -->
      <g transform="translate(33.121436 93.804929) scale(0.1 -0.1)">
       <defs>
        <path id="DejaVuSans-31" d="M 794 531 
L 1825 531 
L 1825 4091 
L 703 3866 
L 703 4441 
L 1819 4666 
L 2450 4666 
L 2450 531 
L 3481 531 
L 3481 0 
L 794 0 
L 794 531 
z
" transform="scale(0.015625)"/>
       </defs>
       <use xlink:href="#DejaVuSans-30"/>
       <use xlink:href="#DejaVuSans-2e" x="63.623047"/>
       <use xlink:href="#DejaVuSans-31" x="95.410156"/>
       <use xlink:href="#DejaVuSans-30" x="159.033203"/>
      </g>
     </g>
    </g>
    <g id="ytick_4">
     <g id="line2d_10">
      <g>
       <use xlink:href="#mf3b5d16987" x="62.387061" y="65.402059" style="stroke: #000000; stroke-width: 0.8"/>
      </g>
     </g>
     <g id="text_4">
      <!-- 0.15 -->
      <g transform="translate(33.121436 69.201277) scale(0.1 -0.1)">
       <use xlink:href="#DejaVuSans-30"/>
       <use xlink:href="#DejaVuSans-2e" x="63.623047"/>
       <use xlink:href="#DejaVuSans-31" x="95.410156"/>
       <use xlink:href="#DejaVuSans-35" x="159.033203"/>
      </g>
     </g>
    </g>
    <g id="ytick_5">
     <g id="line2d_11">
      <g>
       <use xlink:href="#mf3b5d16987" x="62.387061" y="40.798407" style="stroke: #000000; stroke-width: 0.8"/>
      </g>
     </g>
     <g id="text_5">
      <!-- 0.20 -->
      <g transform="translate(33.121436 44.597626) scale(0.1 -0.1)">
       <defs>
        <path id="DejaVuSans-32" d="M 1228 531 
L 3431 531 
L 3431 0 
L 469 0 
L 469 531 
Q 828 903 1448 1529 
Q 2069 2156 2228 2338 
Q 2531 2678 2651 2914 
Q 2772 3150 2772 3378 
Q 2772 3750 2511 3984 
Q 2250 4219 1831 4219 
Q 1534 4219 1204 4116 
Q 875 4013 500 3803 
L 500 4441 
Q 881 4594 1212 4672 
Q 1544 4750 1819 4750 
Q 2544 4750 2975 4387 
Q 3406 4025 3406 3419 
Q 3406 3131 3298 2873 
Q 3191 2616 2906 2266 
Q 2828 2175 2409 1742 
Q 1991 1309 1228 531 
z
" transform="scale(0.015625)"/>
       </defs>
       <use xlink:href="#DejaVuSans-30"/>
       <use xlink:href="#DejaVuSans-2e" x="63.623047"/>
       <use xlink:href="#DejaVuSans-32" x="95.410156"/>
       <use xlink:href="#DejaVuSans-30" x="159.033203"/>
      </g>
     </g>
    </g>
    <g id="text_6">
     <!-- $N_2$ -->
     <g transform="translate(10.741436 95.314215) scale(0.12 -0.12)">
      <defs>
       <path id="DejaVuSans-Oblique-4e" d="M 1081 4666 
L 1931 4666 
L 3219 666 
L 4000 4666 
L 4616 4666 
L 3706 0 
L 2853 0 
L 1569 4025 
L 788 0 
L 172 0 
L 1081 4666 
z
" transform="scale(0.015625)"/>
      </defs>
      <use xlink:href="#DejaVuSans-Oblique-4e" transform="translate(0 0.09375)"/>
      <use xlink:href="#DejaVuSans-32" transform="translate(74.804688 -16.3125) scale(0.7)"/>
     </g>
    </g>
   </g>
   <g id="line2d_12">
    <defs>
     <path id="m563d201c25" d="M 0 2 
C 0.530406 2 1.03916 1.789267 1.414214 1.414214 
C 1.789267 1.03916 2 0.530406 2 0 
C 2 -0.530406 1.789267 -1.03916 1.414214 -1.414214 
C 1.03916 -1.789267 0.530406 -2 0 -2 
C -0.530406 -2 -1.03916 -1.789267 -1.414214 -1.414214 
C -1.789267 -1.03916 -2 -0.530406 -2 0 
C -2 0.530406 -1.789267 1.03916 -1.414214 1.414214 
C -1.03916 1.789267 -0.530406 2 0 2 
z
" style="stroke: #0000cd"/>
    </defs>
    <g clip-path="url(#p8c623fdb56)">
     <use xlink:href="#m563d201c25" x="80.005831" y="104.533762" style="fill: #0000cd; stroke: #0000cd"/>
     <use xlink:href="#m563d201c25" x="84.939086" y="99.670658" style="fill: #0000cd; stroke: #0000cd"/>
     <use xlink:href="#m563d201c25" x="89.167591" y="93.569583" style="fill: #0000cd; stroke: #0000cd"/>
     <use xlink:href="#m563d201c25" x="94.100847" y="92.491763" style="fill: #0000cd; stroke: #0000cd"/>
     <use xlink:href="#m563d201c25" x="99.034102" y="84.267617" style="fill: #0000cd; stroke: #0000cd"/>
     <use xlink:href="#m563d201c25" x="103.262607" y="79.846845" style="fill: #0000cd; stroke: #0000cd"/>
     <use xlink:href="#m563d201c25" x="108.195862" y="69.065721" style="fill: #0000cd; stroke: #0000cd"/>
     <use xlink:href="#m563d201c25" x="113.129118" y="55.847876" style="fill: #0000cd; stroke: #0000cd"/>
     <use xlink:href="#m563d201c25" x="117.357623" y="48.148725" style="fill: #0000cd; stroke: #0000cd"/>
     <use xlink:href="#m563d201c25" x="122.290878" y="45.474235" style="fill: #0000cd; stroke: #0000cd"/>
     <use xlink:href="#m563d201c25" x="127.224134" y="59.981862" style="fill: #0000cd; stroke: #0000cd"/>
     <use xlink:href="#m563d201c25" x="131.452639" y="64.968547" style="fill: #0000cd; stroke: #0000cd"/>
     <use xlink:href="#m563d201c25" x="136.385894" y="79.541818" style="fill: #0000cd; stroke: #0000cd"/>
     <use xlink:href="#m563d201c25" x="141.31915" y="81.10929" style="fill: #0000cd; stroke: #0000cd"/>
     <use xlink:href="#m563d201c25" x="145.547655" y="91.803462" style="fill: #0000cd; stroke: #0000cd"/>
     <use xlink:href="#m563d201c25" x="150.48091" y="99.813508" style="fill: #0000cd; stroke: #0000cd"/>
     <use xlink:href="#m563d201c25" x="155.414166" y="99.068686" style="fill: #0000cd; stroke: #0000cd"/>
     <use xlink:href="#m563d201c25" x="159.642671" y="101.212565" style="fill: #0000cd; stroke: #0000cd"/>
     <use xlink:href="#m563d201c25" x="164.575926" y="103.715617" style="fill: #0000cd; stroke: #0000cd"/>
     <use xlink:href="#m563d201c25" x="169.509182" y="92.904418" style="fill: #0000cd; stroke: #0000cd"/>
     <use xlink:href="#m563d201c25" x="173.737687" y="96.35701" style="fill: #0000cd; stroke: #0000cd"/>
     <use xlink:href="#m563d201c25" x="178.670942" y="90.132674" style="fill: #0000cd; stroke: #0000cd"/>
     <use xlink:href="#m563d201c25" x="183.604198" y="79.573368" style="fill: #0000cd; stroke: #0000cd"/>
    </g>
   </g>
   <g id="line2d_13">
    <defs>
     <path id="me4dbd6fdd1" d="M 0 2 
C 0.530406 2 1.03916 1.789267 1.414214 1.414214 
C 1.789267 1.03916 2 0.530406 2 0 
C 2 -0.530406 1.789267 -1.03916 1.414214 -1.414214 
C 1.03916 -1.789267 0.530406 -2 0 -2 
C -0.530406 -2 -1.03916 -1.789267 -1.414214 -1.414214 
C -1.789267 -1.03916 -2 -0.530406 -2 0 
C -2 0.530406 -1.789267 1.03916 -1.414214 1.414214 
C -1.03916 1.789267 -0.530406 2 0 2 
z
" style="stroke: #87ceeb"/>
    </defs>
    <g clip-path="url(#p8c623fdb56)">
     <use xlink:href="#me4dbd6fdd1" x="82.120083" y="103.326418" style="fill: #87ceeb; stroke: #87ceeb"/>
     <use xlink:href="#me4dbd6fdd1" x="87.053339" y="99.355437" style="fill: #87ceeb; stroke: #87ceeb"/>
     <use xlink:href="#me4dbd6fdd1" x="91.986594" y="98.280641" style="fill: #87ceeb; stroke: #87ceeb"/>
     <use xlink:href="#me4dbd6fdd1" x="96.215099" y="90.371456" style="fill: #87ceeb; stroke: #87ceeb"/>
     <use xlink:href="#me4dbd6fdd1" x="101.148354" y="76.607108" style="fill: #87ceeb; stroke: #87ceeb"/>
     <use xlink:href="#me4dbd6fdd1" x="106.08161" y="68.555778" style="fill: #87ceeb; stroke: #87ceeb"/>
     <use xlink:href="#me4dbd6fdd1" x="110.310115" y="64.586948" style="fill: #87ceeb; stroke: #87ceeb"/>
     <use xlink:href="#me4dbd6fdd1" x="115.24337" y="55.93506" style="fill: #87ceeb; stroke: #87ceeb"/>
     <use xlink:href="#me4dbd6fdd1" x="120.176626" y="40.533794" style="fill: #87ceeb; stroke: #87ceeb"/>
     <use xlink:href="#me4dbd6fdd1" x="124.405131" y="50.195329" style="fill: #87ceeb; stroke: #87ceeb"/>
     <use xlink:href="#me4dbd6fdd1" x="129.338386" y="62.512328" style="fill: #87ceeb; stroke: #87ceeb"/>
     <use xlink:href="#me4dbd6fdd1" x="134.271642" y="70.702297" style="fill: #87ceeb; stroke: #87ceeb"/>
     <use xlink:href="#me4dbd6fdd1" x="138.500147" y="75.549465" style="fill: #87ceeb; stroke: #87ceeb"/>
     <use xlink:href="#me4dbd6fdd1" x="143.433402" y="89.72489" style="fill: #87ceeb; stroke: #87ceeb"/>
     <use xlink:href="#me4dbd6fdd1" x="148.366658" y="90.680541" style="fill: #87ceeb; stroke: #87ceeb"/>
     <use xlink:href="#me4dbd6fdd1" x="152.595163" y="98.858502" style="fill: #87ceeb; stroke: #87ceeb"/>
     <use xlink:href="#me4dbd6fdd1" x="157.528418" y="100.558193" style="fill: #87ceeb; stroke: #87ceeb"/>
     <use xlink:href="#me4dbd6fdd1" x="162.461674" y="100.346449" style="fill: #87ceeb; stroke: #87ceeb"/>
     <use xlink:href="#me4dbd6fdd1" x="166.690179" y="102.125298" style="fill: #87ceeb; stroke: #87ceeb"/>
     <use xlink:href="#me4dbd6fdd1" x="171.623434" y="101.446476" style="fill: #87ceeb; stroke: #87ceeb"/>
     <use xlink:href="#me4dbd6fdd1" x="176.55669" y="91.035525" style="fill: #87ceeb; stroke: #87ceeb"/>
     <use xlink:href="#me4dbd6fdd1" x="180.785195" y="81.085486" style="fill: #87ceeb; stroke: #87ceeb"/>
     <use xlink:href="#me4dbd6fdd1" x="185.71845" y="73.680832" style="fill: #87ceeb; stroke: #87ceeb"/>
    </g>
   </g>
   <g id="line2d_14">
    <path d="M 80.005831 101.32339 
L 87.053339 96.057392 
L 94.100847 92.314675 
L 101.148354 83.20543 
L 108.195862 67.877519 
L 115.24337 50.632376 
L 122.290878 48.636937 
L 129.338386 62.014254 
L 136.385894 76.580412 
L 143.433402 87.903943 
L 150.48091 95.760951 
L 157.528418 100.341514 
L 164.575926 101.421879 
L 171.623434 98.084931 
L 178.670942 88.681507 
L 185.71845 75.158457 
L 192.765958 71.739787 
L 199.813466 81.125666 
L 206.860974 93.032409 
L 213.908482 152.789842 
" clip-path="url(#p8c623fdb56)" style="fill: none; stroke: #000000; stroke-width: 1.5; stroke-linecap: square"/>
   </g>
   <g id="line2d_15">
    <path d="M 186.423201 74.329836 
L 192.061208 64.223714 
L 197.699214 54.460227 
L 199.108716 51.415735 
L 199.813466 49.355199 
L 200.518217 46.203862 
L 201.222968 42.273697 
L 201.927719 40.433463 
L 202.63247 40.566877 
L 203.33722 41.715108 
L 206.156224 47.619993 
L 208.270476 51.528612 
L 209.679978 54.667548 
L 213.908482 65.308571 
L 216.022735 69.758621 
L 218.136987 73.661497 
L 220.95599 78.320649 
L 224.479744 83.60906 
L 228.003498 88.441806 
L 230.822502 91.937761 
L 232.936754 94.287774 
L 235.051006 96.356737 
L 237.165259 98.101812 
L 239.279511 99.483568 
L 240.689013 100.18559 
L 242.098514 100.701711 
L 243.508016 101.024069 
L 244.917517 101.145897 
L 246.327019 101.061564 
L 247.736521 100.766664 
L 249.146022 100.258158 
L 250.555524 99.534574 
L 251.965025 98.596254 
L 253.374527 97.445637 
L 254.784029 96.087539 
L 256.898281 93.678448 
L 259.012533 90.857272 
L 261.126786 87.676272 
L 263.945789 82.991698 
L 268.174294 75.403412 
L 274.517051 64.020791 
L 280.155057 54.235192 
L 281.564559 51.11571 
L 282.26931 48.941058 
L 283.678811 41.801496 
L 284.383562 40.347483 
L 285.088313 40.707251 
L 285.793064 41.949592 
L 288.612067 47.835129 
L 290.726319 51.761808 
L 292.135821 54.955833 
L 296.364326 65.57119 
L 298.478578 69.985752 
L 300.592831 73.864206 
L 303.411834 78.503159 
L 306.935588 83.775219 
L 310.459342 88.592002 
L 313.278345 92.071747 
L 315.392597 94.406817 
L 317.50685 96.458354 
L 319.621102 98.183662 
L 321.735355 99.54356 
L 323.144856 100.229993 
L 324.554358 100.729815 
L 325.963859 101.035257 
L 327.373361 101.139645 
L 328.782863 101.037448 
L 330.192364 100.724367 
L 331.601866 100.19749 
L 333.011367 99.455489 
L 334.420869 98.498876 
L 335.830371 97.330283 
L 337.944623 95.191663 
L 340.058875 92.616469 
L 342.173128 89.647848 
L 344.992131 85.179882 
L 348.515885 79.024502 
L 357.677645 62.597546 
L 362.610901 53.993426 
L 363.315652 52.519581 
L 364.020403 50.783484 
L 364.725153 48.464797 
L 366.134655 41.374743 
L 366.839406 40.309985 
L 367.544157 40.883008 
L 368.953658 43.761117 
L 370.36316 46.729256 
L 373.886914 53.558194 
L 376.001166 58.943832 
L 378.115419 64.238999 
L 380.229671 68.835596 
L 382.343923 72.841222 
L 385.162926 77.584763 
L 387.98193 81.90647 
L 391.505684 86.888774 
L 394.324687 90.531461 
L 397.14369 93.790898 
L 399.257942 95.924304 
L 401.372195 97.742908 
L 403.486447 99.206384 
L 404.895949 99.966891 
L 406.30545 100.544292 
L 407.714952 100.930372 
L 409.124454 101.118005 
L 410.533955 101.101181 
L 411.943457 100.875082 
L 413.352958 100.436202 
L 414.76246 99.782536 
L 416.171962 98.913807 
L 417.581463 97.831744 
L 418.990965 96.540362 
L 421.105217 94.22596 
L 423.21947 91.49016 
L 425.333722 88.382016 
L 428.152725 83.770217 
L 431.676479 77.515564 
L 432.38123 76.230839 
L 432.38123 76.230839 
" clip-path="url(#p8c623fdb56)" style="fill: none; stroke-dasharray: 5.55,2.4; stroke-dashoffset: 0; stroke: #696969; stroke-width: 1.5"/>
   </g>
   <g id="patch_3">
    <path d="M 62.387061 161.05968 
L 62.387061 34.56 
" style="fill: none; stroke: #000000; stroke-width: 0.8; stroke-linejoin: miter; stroke-linecap: square"/>
   </g>
   <g id="patch_4">
    <path d="M 450 161.05968 
L 450 34.56 
" style="fill: none; stroke: #000000; stroke-width: 0.8; stroke-linejoin: miter; stroke-linecap: square"/>
   </g>
   <g id="patch_5">
    <path d="M 62.387061 161.05968 
L 450 161.05968 
" style="fill: none; stroke: #000000; stroke-width: 0.8; stroke-linejoin: miter; stroke-linecap: square"/>
   </g>
   <g id="patch_6">
    <path d="M 62.387061 34.56 
L 450 34.56 
" style="fill: none; stroke: #000000; stroke-width: 0.8; stroke-linejoin: miter; stroke-linecap: square"/>
   </g>
   <g id="legend_1">
    <g id="patch_7">
     <path d="M 66.587061 158.05968 
L 130.749561 158.05968 
Q 131.949561 158.05968 131.949561 156.85968 
L 131.949561 113.425305 
Q 131.949561 112.225305 130.749561 112.225305 
L 66.587061 112.225305 
Q 65.387061 112.225305 65.387061 113.425305 
L 65.387061 156.85968 
Q 65.387061 158.05968 66.587061 158.05968 
z
" style="fill: #ffffff; opacity: 0.8; stroke: #cccccc; stroke-linejoin: miter"/>
    </g>
    <g id="line2d_16">
     <g>
      <use xlink:href="#m563d201c25" x="73.787061" y="117.084367" style="fill: #0000cd; stroke: #0000cd"/>
     </g>
    </g>
    <g id="text_7">
     <!-- training data -->
     <g transform="translate(84.587061 119.184367) scale(0.06 -0.06)">
      <defs>
       <path id="DejaVuSans-74" d="M 1172 4494 
L 1172 3500 
L 2356 3500 
L 2356 3053 
L 1172 3053 
L 1172 1153 
Q 1172 725 1289 603 
Q 1406 481 1766 481 
L 2356 481 
L 2356 0 
L 1766 0 
Q 1100 0 847 248 
Q 594 497 594 1153 
L 594 3053 
L 172 3053 
L 172 3500 
L 594 3500 
L 594 4494 
L 1172 4494 
z
" transform="scale(0.015625)"/>
       <path id="DejaVuSans-72" d="M 2631 2963 
Q 2534 3019 2420 3045 
Q 2306 3072 2169 3072 
Q 1681 3072 1420 2755 
Q 1159 2438 1159 1844 
L 1159 0 
L 581 0 
L 581 3500 
L 1159 3500 
L 1159 2956 
Q 1341 3275 1631 3429 
Q 1922 3584 2338 3584 
Q 2397 3584 2469 3576 
Q 2541 3569 2628 3553 
L 2631 2963 
z
" transform="scale(0.015625)"/>
       <path id="DejaVuSans-61" d="M 2194 1759 
Q 1497 1759 1228 1600 
Q 959 1441 959 1056 
Q 959 750 1161 570 
Q 1363 391 1709 391 
Q 2188 391 2477 730 
Q 2766 1069 2766 1631 
L 2766 1759 
L 2194 1759 
z
M 3341 1997 
L 3341 0 
L 2766 0 
L 2766 531 
Q 2569 213 2275 61 
Q 1981 -91 1556 -91 
Q 1019 -91 701 211 
Q 384 513 384 1019 
Q 384 1609 779 1909 
Q 1175 2209 1959 2209 
L 2766 2209 
L 2766 2266 
Q 2766 2663 2505 2880 
Q 2244 3097 1772 3097 
Q 1472 3097 1187 3025 
Q 903 2953 641 2809 
L 641 3341 
Q 956 3463 1253 3523 
Q 1550 3584 1831 3584 
Q 2591 3584 2966 3190 
Q 3341 2797 3341 1997 
z
" transform="scale(0.015625)"/>
       <path id="DejaVuSans-69" d="M 603 3500 
L 1178 3500 
L 1178 0 
L 603 0 
L 603 3500 
z
M 603 4863 
L 1178 4863 
L 1178 4134 
L 603 4134 
L 603 4863 
z
" transform="scale(0.015625)"/>
       <path id="DejaVuSans-6e" d="M 3513 2113 
L 3513 0 
L 2938 0 
L 2938 2094 
Q 2938 2591 2744 2837 
Q 2550 3084 2163 3084 
Q 1697 3084 1428 2787 
Q 1159 2491 1159 1978 
L 1159 0 
L 581 0 
L 581 3500 
L 1159 3500 
L 1159 2956 
Q 1366 3272 1645 3428 
Q 1925 3584 2291 3584 
Q 2894 3584 3203 3211 
Q 3513 2838 3513 2113 
z
" transform="scale(0.015625)"/>
       <path id="DejaVuSans-67" d="M 2906 1791 
Q 2906 2416 2648 2759 
Q 2391 3103 1925 3103 
Q 1463 3103 1205 2759 
Q 947 2416 947 1791 
Q 947 1169 1205 825 
Q 1463 481 1925 481 
Q 2391 481 2648 825 
Q 2906 1169 2906 1791 
z
M 3481 434 
Q 3481 -459 3084 -895 
Q 2688 -1331 1869 -1331 
Q 1566 -1331 1297 -1286 
Q 1028 -1241 775 -1147 
L 775 -588 
Q 1028 -725 1275 -790 
Q 1522 -856 1778 -856 
Q 2344 -856 2625 -561 
Q 2906 -266 2906 331 
L 2906 616 
Q 2728 306 2450 153 
Q 2172 0 1784 0 
Q 1141 0 747 490 
Q 353 981 353 1791 
Q 353 2603 747 3093 
Q 1141 3584 1784 3584 
Q 2172 3584 2450 3431 
Q 2728 3278 2906 2969 
L 2906 3500 
L 3481 3500 
L 3481 434 
z
" transform="scale(0.015625)"/>
       <path id="DejaVuSans-20" transform="scale(0.015625)"/>
       <path id="DejaVuSans-64" d="M 2906 2969 
L 2906 4863 
L 3481 4863 
L 3481 0 
L 2906 0 
L 2906 525 
Q 2725 213 2448 61 
Q 2172 -91 1784 -91 
Q 1150 -91 751 415 
Q 353 922 353 1747 
Q 353 2572 751 3078 
Q 1150 3584 1784 3584 
Q 2172 3584 2448 3432 
Q 2725 3281 2906 2969 
z
M 947 1747 
Q 947 1113 1208 752 
Q 1469 391 1925 391 
Q 2381 391 2643 752 
Q 2906 1113 2906 1747 
Q 2906 2381 2643 2742 
Q 2381 3103 1925 3103 
Q 1469 3103 1208 2742 
Q 947 2381 947 1747 
z
" transform="scale(0.015625)"/>
      </defs>
      <use xlink:href="#DejaVuSans-74"/>
      <use xlink:href="#DejaVuSans-72" x="39.208984"/>
      <use xlink:href="#DejaVuSans-61" x="80.322266"/>
      <use xlink:href="#DejaVuSans-69" x="141.601562"/>
      <use xlink:href="#DejaVuSans-6e" x="169.384766"/>
      <use xlink:href="#DejaVuSans-69" x="232.763672"/>
      <use xlink:href="#DejaVuSans-6e" x="260.546875"/>
      <use xlink:href="#DejaVuSans-67" x="323.925781"/>
      <use xlink:href="#DejaVuSans-20" x="387.402344"/>
      <use xlink:href="#DejaVuSans-64" x="419.189453"/>
      <use xlink:href="#DejaVuSans-61" x="482.666016"/>
      <use xlink:href="#DejaVuSans-74" x="543.945312"/>
      <use xlink:href="#DejaVuSans-61" x="583.154297"/>
     </g>
    </g>
    <g id="line2d_17">
     <g>
      <use xlink:href="#me4dbd6fdd1" x="73.787061" y="125.891242" style="fill: #87ceeb; stroke: #87ceeb"/>
     </g>
    </g>
    <g id="text_8">
     <!-- validation data -->
     <g transform="translate(84.587061 127.991242) scale(0.06 -0.06)">
      <defs>
       <path id="DejaVuSans-76" d="M 191 3500 
L 800 3500 
L 1894 563 
L 2988 3500 
L 3597 3500 
L 2284 0 
L 1503 0 
L 191 3500 
z
" transform="scale(0.015625)"/>
       <path id="DejaVuSans-6c" d="M 603 4863 
L 1178 4863 
L 1178 0 
L 603 0 
L 603 4863 
z
" transform="scale(0.015625)"/>
       <path id="DejaVuSans-6f" d="M 1959 3097 
Q 1497 3097 1228 2736 
Q 959 2375 959 1747 
Q 959 1119 1226 758 
Q 1494 397 1959 397 
Q 2419 397 2687 759 
Q 2956 1122 2956 1747 
Q 2956 2369 2687 2733 
Q 2419 3097 1959 3097 
z
M 1959 3584 
Q 2709 3584 3137 3096 
Q 3566 2609 3566 1747 
Q 3566 888 3137 398 
Q 2709 -91 1959 -91 
Q 1206 -91 779 398 
Q 353 888 353 1747 
Q 353 2609 779 3096 
Q 1206 3584 1959 3584 
z
" transform="scale(0.015625)"/>
      </defs>
      <use xlink:href="#DejaVuSans-76"/>
      <use xlink:href="#DejaVuSans-61" x="59.179688"/>
      <use xlink:href="#DejaVuSans-6c" x="120.458984"/>
      <use xlink:href="#DejaVuSans-69" x="148.242188"/>
      <use xlink:href="#DejaVuSans-64" x="176.025391"/>
      <use xlink:href="#DejaVuSans-61" x="239.501953"/>
      <use xlink:href="#DejaVuSans-74" x="300.78125"/>
      <use xlink:href="#DejaVuSans-69" x="339.990234"/>
      <use xlink:href="#DejaVuSans-6f" x="367.773438"/>
      <use xlink:href="#DejaVuSans-6e" x="428.955078"/>
      <use xlink:href="#DejaVuSans-20" x="492.333984"/>
      <use xlink:href="#DejaVuSans-64" x="524.121094"/>
      <use xlink:href="#DejaVuSans-61" x="587.597656"/>
      <use xlink:href="#DejaVuSans-74" x="648.876953"/>
      <use xlink:href="#DejaVuSans-61" x="688.085938"/>
     </g>
    </g>
    <g id="line2d_18">
     <path d="M 67.787061 134.698117 
L 73.787061 134.698117 
L 79.787061 134.698117 
" style="fill: none; stroke: #000000; stroke-width: 1.5; stroke-linecap: square"/>
    </g>
    <g id="text_9">
     <!-- Simulation -->
     <g transform="translate(84.587061 136.798117) scale(0.06 -0.06)">
      <defs>
       <path id="DejaVuSans-53" d="M 3425 4513 
L 3425 3897 
Q 3066 4069 2747 4153 
Q 2428 4238 2131 4238 
Q 1616 4238 1336 4038 
Q 1056 3838 1056 3469 
Q 1056 3159 1242 3001 
Q 1428 2844 1947 2747 
L 2328 2669 
Q 3034 2534 3370 2195 
Q 3706 1856 3706 1288 
Q 3706 609 3251 259 
Q 2797 -91 1919 -91 
Q 1588 -91 1214 -16 
Q 841 59 441 206 
L 441 856 
Q 825 641 1194 531 
Q 1563 422 1919 422 
Q 2459 422 2753 634 
Q 3047 847 3047 1241 
Q 3047 1584 2836 1778 
Q 2625 1972 2144 2069 
L 1759 2144 
Q 1053 2284 737 2584 
Q 422 2884 422 3419 
Q 422 4038 858 4394 
Q 1294 4750 2059 4750 
Q 2388 4750 2728 4690 
Q 3069 4631 3425 4513 
z
" transform="scale(0.015625)"/>
       <path id="DejaVuSans-6d" d="M 3328 2828 
Q 3544 3216 3844 3400 
Q 4144 3584 4550 3584 
Q 5097 3584 5394 3201 
Q 5691 2819 5691 2113 
L 5691 0 
L 5113 0 
L 5113 2094 
Q 5113 2597 4934 2840 
Q 4756 3084 4391 3084 
Q 3944 3084 3684 2787 
Q 3425 2491 3425 1978 
L 3425 0 
L 2847 0 
L 2847 2094 
Q 2847 2600 2669 2842 
Q 2491 3084 2119 3084 
Q 1678 3084 1418 2786 
Q 1159 2488 1159 1978 
L 1159 0 
L 581 0 
L 581 3500 
L 1159 3500 
L 1159 2956 
Q 1356 3278 1631 3431 
Q 1906 3584 2284 3584 
Q 2666 3584 2933 3390 
Q 3200 3197 3328 2828 
z
" transform="scale(0.015625)"/>
       <path id="DejaVuSans-75" d="M 544 1381 
L 544 3500 
L 1119 3500 
L 1119 1403 
Q 1119 906 1312 657 
Q 1506 409 1894 409 
Q 2359 409 2629 706 
Q 2900 1003 2900 1516 
L 2900 3500 
L 3475 3500 
L 3475 0 
L 2900 0 
L 2900 538 
Q 2691 219 2414 64 
Q 2138 -91 1772 -91 
Q 1169 -91 856 284 
Q 544 659 544 1381 
z
M 1991 3584 
L 1991 3584 
z
" transform="scale(0.015625)"/>
      </defs>
      <use xlink:href="#DejaVuSans-53"/>
      <use xlink:href="#DejaVuSans-69" x="63.476562"/>
      <use xlink:href="#DejaVuSans-6d" x="91.259766"/>
      <use xlink:href="#DejaVuSans-75" x="188.671875"/>
      <use xlink:href="#DejaVuSans-6c" x="252.050781"/>
      <use xlink:href="#DejaVuSans-61" x="279.833984"/>
      <use xlink:href="#DejaVuSans-74" x="341.113281"/>
      <use xlink:href="#DejaVuSans-69" x="380.322266"/>
      <use xlink:href="#DejaVuSans-6f" x="408.105469"/>
      <use xlink:href="#DejaVuSans-6e" x="469.287109"/>
     </g>
    </g>
    <g id="patch_8">
     <path d="M 67.787061 145.604992 
L 79.787061 145.604992 
L 79.787061 141.404992 
L 67.787061 141.404992 
z
" style="fill: #808080; fill-opacity: 0.2"/>
    </g>
    <g id="text_10">
     <!-- +/- std 0.005 -->
     <g transform="translate(84.587061 145.604992) scale(0.06 -0.06)">
      <defs>
       <path id="DejaVuSans-2b" d="M 2944 4013 
L 2944 2272 
L 4684 2272 
L 4684 1741 
L 2944 1741 
L 2944 0 
L 2419 0 
L 2419 1741 
L 678 1741 
L 678 2272 
L 2419 2272 
L 2419 4013 
L 2944 4013 
z
" transform="scale(0.015625)"/>
       <path id="DejaVuSans-2f" d="M 1625 4666 
L 2156 4666 
L 531 -594 
L 0 -594 
L 1625 4666 
z
" transform="scale(0.015625)"/>
       <path id="DejaVuSans-2d" d="M 313 2009 
L 1997 2009 
L 1997 1497 
L 313 1497 
L 313 2009 
z
" transform="scale(0.015625)"/>
       <path id="DejaVuSans-73" d="M 2834 3397 
L 2834 2853 
Q 2591 2978 2328 3040 
Q 2066 3103 1784 3103 
Q 1356 3103 1142 2972 
Q 928 2841 928 2578 
Q 928 2378 1081 2264 
Q 1234 2150 1697 2047 
L 1894 2003 
Q 2506 1872 2764 1633 
Q 3022 1394 3022 966 
Q 3022 478 2636 193 
Q 2250 -91 1575 -91 
Q 1294 -91 989 -36 
Q 684 19 347 128 
L 347 722 
Q 666 556 975 473 
Q 1284 391 1588 391 
Q 1994 391 2212 530 
Q 2431 669 2431 922 
Q 2431 1156 2273 1281 
Q 2116 1406 1581 1522 
L 1381 1569 
Q 847 1681 609 1914 
Q 372 2147 372 2553 
Q 372 3047 722 3315 
Q 1072 3584 1716 3584 
Q 2034 3584 2315 3537 
Q 2597 3491 2834 3397 
z
" transform="scale(0.015625)"/>
      </defs>
      <use xlink:href="#DejaVuSans-2b"/>
      <use xlink:href="#DejaVuSans-2f" x="83.789062"/>
      <use xlink:href="#DejaVuSans-2d" x="117.480469"/>
      <use xlink:href="#DejaVuSans-20" x="153.564453"/>
      <use xlink:href="#DejaVuSans-73" x="185.351562"/>
      <use xlink:href="#DejaVuSans-74" x="237.451172"/>
      <use xlink:href="#DejaVuSans-64" x="276.660156"/>
      <use xlink:href="#DejaVuSans-20" x="340.136719"/>
      <use xlink:href="#DejaVuSans-30" x="371.923828"/>
      <use xlink:href="#DejaVuSans-2e" x="435.546875"/>
      <use xlink:href="#DejaVuSans-30" x="467.333984"/>
      <use xlink:href="#DejaVuSans-30" x="530.957031"/>
      <use xlink:href="#DejaVuSans-35" x="594.580078"/>
     </g>
    </g>
    <g id="line2d_19">
     <path d="M 67.787061 152.311867 
L 73.787061 152.311867 
L 79.787061 152.311867 
" style="fill: none; stroke-dasharray: 5.55,2.4; stroke-dashoffset: 0; stroke: #696969; stroke-width: 1.5"/>
    </g>
    <g id="text_11">
     <!-- True solution -->
     <g transform="translate(84.587061 154.411867) scale(0.06 -0.06)">
      <defs>
       <path id="DejaVuSans-54" d="M -19 4666 
L 3928 4666 
L 3928 4134 
L 2272 4134 
L 2272 0 
L 1638 0 
L 1638 4134 
L -19 4134 
L -19 4666 
z
" transform="scale(0.015625)"/>
       <path id="DejaVuSans-65" d="M 3597 1894 
L 3597 1613 
L 953 1613 
Q 991 1019 1311 708 
Q 1631 397 2203 397 
Q 2534 397 2845 478 
Q 3156 559 3463 722 
L 3463 178 
Q 3153 47 2828 -22 
Q 2503 -91 2169 -91 
Q 1331 -91 842 396 
Q 353 884 353 1716 
Q 353 2575 817 3079 
Q 1281 3584 2069 3584 
Q 2775 3584 3186 3129 
Q 3597 2675 3597 1894 
z
M 3022 2063 
Q 3016 2534 2758 2815 
Q 2500 3097 2075 3097 
Q 1594 3097 1305 2825 
Q 1016 2553 972 2059 
L 3022 2063 
z
" transform="scale(0.015625)"/>
      </defs>
      <use xlink:href="#DejaVuSans-54"/>
      <use xlink:href="#DejaVuSans-72" x="46.333984"/>
      <use xlink:href="#DejaVuSans-75" x="87.447266"/>
      <use xlink:href="#DejaVuSans-65" x="150.826172"/>
      <use xlink:href="#DejaVuSans-20" x="212.349609"/>
      <use xlink:href="#DejaVuSans-73" x="244.136719"/>
      <use xlink:href="#DejaVuSans-6f" x="296.236328"/>
      <use xlink:href="#DejaVuSans-6c" x="357.417969"/>
      <use xlink:href="#DejaVuSans-75" x="385.201172"/>
      <use xlink:href="#DejaVuSans-74" x="448.580078"/>
      <use xlink:href="#DejaVuSans-69" x="487.789062"/>
      <use xlink:href="#DejaVuSans-6f" x="515.572266"/>
      <use xlink:href="#DejaVuSans-6e" x="576.753906"/>
     </g>
    </g>
   </g>
  </g>
  <g id="axes_2">
   <g id="patch_9">
    <path d="M 62.387061 303.64 
L 450 303.64 
L 450 177.14032 
L 62.387061 177.14032 
z
" style="fill: #ffffff"/>
   </g>
   <g id="PolyCollection_2">
    <path d="M 80.005831 182.890306 
L 80.005831 212.198017 
L 87.053339 216.544878 
L 94.100847 224.231701 
L 101.148354 230.09392 
L 108.195862 234.014686 
L 115.24337 248.517601 
L 122.290878 260.02564 
L 129.338386 250.773986 
L 136.385894 240.939183 
L 143.433402 233.288986 
L 150.48091 227.476737 
L 157.528418 223.933433 
L 164.575926 223.22814 
L 171.623434 225.206552 
L 178.670942 230.150221 
L 185.71845 248.727661 
L 192.765958 260.708809 
L 199.813466 275.179859 
L 206.860974 297.774257 
L 213.908482 297.890015 
L 213.908482 268.582303 
L 213.908482 268.582303 
L 206.860974 268.466545 
L 199.813466 245.872147 
L 192.765958 231.401097 
L 185.71845 219.419949 
L 178.670942 200.842509 
L 171.623434 195.89884 
L 164.575926 193.920429 
L 157.528418 194.625722 
L 150.48091 198.169026 
L 143.433402 203.981275 
L 136.385894 211.631471 
L 129.338386 221.466275 
L 122.290878 230.717929 
L 115.24337 219.20989 
L 108.195862 204.706975 
L 101.148354 200.786209 
L 94.100847 194.923989 
L 87.053339 187.237166 
L 80.005831 182.890306 
z
" clip-path="url(#p15f31ea177)" style="fill: #808080; fill-opacity: 0.2"/>
   </g>
   <g id="matplotlib.axis_3">
    <g id="xtick_7">
     <g id="line2d_20">
      <g>
       <use xlink:href="#mdab6f099f5" x="80.005831" y="303.64" style="stroke: #000000; stroke-width: 0.8"/>
      </g>
     </g>
     <g id="text_12">
      <!-- 0 -->
      <g transform="translate(76.824581 318.238437) scale(0.1 -0.1)">
       <use xlink:href="#DejaVuSans-30"/>
      </g>
     </g>
    </g>
    <g id="xtick_8">
     <g id="line2d_21">
      <g>
       <use xlink:href="#mdab6f099f5" x="150.48091" y="303.64" style="stroke: #000000; stroke-width: 0.8"/>
      </g>
     </g>
     <g id="text_13">
      <!-- 1 -->
      <g transform="translate(147.29966 318.238437) scale(0.1 -0.1)">
       <use xlink:href="#DejaVuSans-31"/>
      </g>
     </g>
    </g>
    <g id="xtick_9">
     <g id="line2d_22">
      <g>
       <use xlink:href="#mdab6f099f5" x="220.95599" y="303.64" style="stroke: #000000; stroke-width: 0.8"/>
      </g>
     </g>
     <g id="text_14">
      <!-- 2 -->
      <g transform="translate(217.77474 318.238437) scale(0.1 -0.1)">
       <use xlink:href="#DejaVuSans-32"/>
      </g>
     </g>
    </g>
    <g id="xtick_10">
     <g id="line2d_23">
      <g>
       <use xlink:href="#mdab6f099f5" x="291.43107" y="303.64" style="stroke: #000000; stroke-width: 0.8"/>
      </g>
     </g>
     <g id="text_15">
      <!-- 3 -->
      <g transform="translate(288.24982 318.238437) scale(0.1 -0.1)">
       <defs>
        <path id="DejaVuSans-33" d="M 2597 2516 
Q 3050 2419 3304 2112 
Q 3559 1806 3559 1356 
Q 3559 666 3084 287 
Q 2609 -91 1734 -91 
Q 1441 -91 1130 -33 
Q 819 25 488 141 
L 488 750 
Q 750 597 1062 519 
Q 1375 441 1716 441 
Q 2309 441 2620 675 
Q 2931 909 2931 1356 
Q 2931 1769 2642 2001 
Q 2353 2234 1838 2234 
L 1294 2234 
L 1294 2753 
L 1863 2753 
Q 2328 2753 2575 2939 
Q 2822 3125 2822 3475 
Q 2822 3834 2567 4026 
Q 2313 4219 1838 4219 
Q 1578 4219 1281 4162 
Q 984 4106 628 3988 
L 628 4550 
Q 988 4650 1302 4700 
Q 1616 4750 1894 4750 
Q 2613 4750 3031 4423 
Q 3450 4097 3450 3541 
Q 3450 3153 3228 2886 
Q 3006 2619 2597 2516 
z
" transform="scale(0.015625)"/>
       </defs>
       <use xlink:href="#DejaVuSans-33"/>
      </g>
     </g>
    </g>
    <g id="xtick_11">
     <g id="line2d_24">
      <g>
       <use xlink:href="#mdab6f099f5" x="361.90615" y="303.64" style="stroke: #000000; stroke-width: 0.8"/>
      </g>
     </g>
     <g id="text_16">
      <!-- 4 -->
      <g transform="translate(358.7249 318.238437) scale(0.1 -0.1)">
       <defs>
        <path id="DejaVuSans-34" d="M 2419 4116 
L 825 1625 
L 2419 1625 
L 2419 4116 
z
M 2253 4666 
L 3047 4666 
L 3047 1625 
L 3713 1625 
L 3713 1100 
L 3047 1100 
L 3047 0 
L 2419 0 
L 2419 1100 
L 313 1100 
L 313 1709 
L 2253 4666 
z
" transform="scale(0.015625)"/>
       </defs>
       <use xlink:href="#DejaVuSans-34"/>
      </g>
     </g>
    </g>
    <g id="xtick_12">
     <g id="line2d_25">
      <g>
       <use xlink:href="#mdab6f099f5" x="432.38123" y="303.64" style="stroke: #000000; stroke-width: 0.8"/>
      </g>
     </g>
     <g id="text_17">
      <!-- 5 -->
      <g transform="translate(429.19998 318.238437) scale(0.1 -0.1)">
       <use xlink:href="#DejaVuSans-35"/>
      </g>
     </g>
    </g>
    <g id="text_18">
     <!-- Time -->
     <g transform="translate(243.959937 331.916562) scale(0.1 -0.1)">
      <use xlink:href="#DejaVuSans-54"/>
      <use xlink:href="#DejaVuSans-69" x="57.958984"/>
      <use xlink:href="#DejaVuSans-6d" x="85.742188"/>
      <use xlink:href="#DejaVuSans-65" x="183.154297"/>
     </g>
    </g>
   </g>
   <g id="matplotlib.axis_4">
    <g id="ytick_6">
     <g id="line2d_26">
      <g>
       <use xlink:href="#mf3b5d16987" x="62.387061" y="282.989045" style="stroke: #000000; stroke-width: 0.8"/>
      </g>
     </g>
     <g id="text_19">
      <!-- 0 -->
      <g transform="translate(49.024561 286.788264) scale(0.1 -0.1)">
       <use xlink:href="#DejaVuSans-30"/>
      </g>
     </g>
    </g>
    <g id="ytick_7">
     <g id="line2d_27">
      <g>
       <use xlink:href="#mf3b5d16987" x="62.387061" y="248.46586" style="stroke: #000000; stroke-width: 0.8"/>
      </g>
     </g>
     <g id="text_20">
      <!-- 1 -->
      <g transform="translate(49.024561 252.265078) scale(0.1 -0.1)">
       <use xlink:href="#DejaVuSans-31"/>
      </g>
     </g>
    </g>
    <g id="ytick_8">
     <g id="line2d_28">
      <g>
       <use xlink:href="#mf3b5d16987" x="62.387061" y="213.942674" style="stroke: #000000; stroke-width: 0.8"/>
      </g>
     </g>
     <g id="text_21">
      <!-- 2 -->
      <g transform="translate(49.024561 217.741893) scale(0.1 -0.1)">
       <use xlink:href="#DejaVuSans-32"/>
      </g>
     </g>
    </g>
    <g id="ytick_9">
     <g id="line2d_29">
      <g>
       <use xlink:href="#mf3b5d16987" x="62.387061" y="179.419489" style="stroke: #000000; stroke-width: 0.8"/>
      </g>
     </g>
     <g id="text_22">
      <!-- 3 -->
      <g transform="translate(49.024561 183.218708) scale(0.1 -0.1)">
       <use xlink:href="#DejaVuSans-33"/>
      </g>
     </g>
    </g>
    <g id="text_23">
     <!-- $A_3$ -->
     <g transform="translate(27.064561 237.894535) scale(0.12 -0.12)">
      <defs>
       <path id="DejaVuSans-Oblique-41" d="M 2356 4666 
L 3072 4666 
L 3938 0 
L 3278 0 
L 3084 1197 
L 984 1197 
L 325 0 
L -341 0 
L 2356 4666 
z
M 2584 4044 
L 1275 1722 
L 2988 1722 
L 2584 4044 
z
" transform="scale(0.015625)"/>
      </defs>
      <use xlink:href="#DejaVuSans-Oblique-41" transform="translate(0 0.09375)"/>
      <use xlink:href="#DejaVuSans-33" transform="translate(68.408203 -16.3125) scale(0.7)"/>
     </g>
    </g>
   </g>
   <g id="line2d_30">
    <g clip-path="url(#p15f31ea177)">
     <use xlink:href="#m563d201c25" x="80.005831" y="197.150139" style="fill: #0000cd; stroke: #0000cd"/>
     <use xlink:href="#m563d201c25" x="84.939086" y="203.595127" style="fill: #0000cd; stroke: #0000cd"/>
     <use xlink:href="#m563d201c25" x="89.167591" y="201.501174" style="fill: #0000cd; stroke: #0000cd"/>
     <use xlink:href="#m563d201c25" x="94.100847" y="211.045354" style="fill: #0000cd; stroke: #0000cd"/>
     <use xlink:href="#m563d201c25" x="99.034102" y="224.467592" style="fill: #0000cd; stroke: #0000cd"/>
     <use xlink:href="#m563d201c25" x="103.262607" y="222.781599" style="fill: #0000cd; stroke: #0000cd"/>
     <use xlink:href="#m563d201c25" x="108.195862" y="235.61759" style="fill: #0000cd; stroke: #0000cd"/>
     <use xlink:href="#m563d201c25" x="113.129118" y="240.008028" style="fill: #0000cd; stroke: #0000cd"/>
     <use xlink:href="#m563d201c25" x="117.357623" y="260.680374" style="fill: #0000cd; stroke: #0000cd"/>
     <use xlink:href="#m563d201c25" x="122.290878" y="275.601841" style="fill: #0000cd; stroke: #0000cd"/>
     <use xlink:href="#m563d201c25" x="127.224134" y="257.834593" style="fill: #0000cd; stroke: #0000cd"/>
     <use xlink:href="#m563d201c25" x="131.452639" y="230.275818" style="fill: #0000cd; stroke: #0000cd"/>
     <use xlink:href="#m563d201c25" x="136.385894" y="212.135995" style="fill: #0000cd; stroke: #0000cd"/>
     <use xlink:href="#m563d201c25" x="141.31915" y="193.482296" style="fill: #0000cd; stroke: #0000cd"/>
     <use xlink:href="#m563d201c25" x="145.547655" y="194.114563" style="fill: #0000cd; stroke: #0000cd"/>
     <use xlink:href="#m563d201c25" x="150.48091" y="193.593299" style="fill: #0000cd; stroke: #0000cd"/>
     <use xlink:href="#m563d201c25" x="155.414166" y="193.473724" style="fill: #0000cd; stroke: #0000cd"/>
     <use xlink:href="#m563d201c25" x="159.642671" y="193.950215" style="fill: #0000cd; stroke: #0000cd"/>
     <use xlink:href="#m563d201c25" x="164.575926" y="198.71493" style="fill: #0000cd; stroke: #0000cd"/>
     <use xlink:href="#m563d201c25" x="169.509182" y="202.085777" style="fill: #0000cd; stroke: #0000cd"/>
     <use xlink:href="#m563d201c25" x="173.737687" y="209.249721" style="fill: #0000cd; stroke: #0000cd"/>
     <use xlink:href="#m563d201c25" x="178.670942" y="209.542033" style="fill: #0000cd; stroke: #0000cd"/>
     <use xlink:href="#m563d201c25" x="183.604198" y="225.509899" style="fill: #0000cd; stroke: #0000cd"/>
    </g>
   </g>
   <g id="line2d_31">
    <g clip-path="url(#p15f31ea177)">
     <use xlink:href="#me4dbd6fdd1" x="82.120083" y="196.895439" style="fill: #87ceeb; stroke: #87ceeb"/>
     <use xlink:href="#me4dbd6fdd1" x="87.053339" y="199.99171" style="fill: #87ceeb; stroke: #87ceeb"/>
     <use xlink:href="#me4dbd6fdd1" x="91.986594" y="214.486052" style="fill: #87ceeb; stroke: #87ceeb"/>
     <use xlink:href="#me4dbd6fdd1" x="96.215099" y="217.757654" style="fill: #87ceeb; stroke: #87ceeb"/>
     <use xlink:href="#me4dbd6fdd1" x="101.148354" y="222.881438" style="fill: #87ceeb; stroke: #87ceeb"/>
     <use xlink:href="#me4dbd6fdd1" x="106.08161" y="232.847714" style="fill: #87ceeb; stroke: #87ceeb"/>
     <use xlink:href="#me4dbd6fdd1" x="110.310115" y="230.784133" style="fill: #87ceeb; stroke: #87ceeb"/>
     <use xlink:href="#me4dbd6fdd1" x="115.24337" y="244.408938" style="fill: #87ceeb; stroke: #87ceeb"/>
     <use xlink:href="#me4dbd6fdd1" x="120.176626" y="280.259707" style="fill: #87ceeb; stroke: #87ceeb"/>
     <use xlink:href="#me4dbd6fdd1" x="124.405131" y="271.16546" style="fill: #87ceeb; stroke: #87ceeb"/>
     <use xlink:href="#me4dbd6fdd1" x="129.338386" y="238.68527" style="fill: #87ceeb; stroke: #87ceeb"/>
     <use xlink:href="#me4dbd6fdd1" x="134.271642" y="222.052193" style="fill: #87ceeb; stroke: #87ceeb"/>
     <use xlink:href="#me4dbd6fdd1" x="138.500147" y="203.505441" style="fill: #87ceeb; stroke: #87ceeb"/>
     <use xlink:href="#me4dbd6fdd1" x="143.433402" y="196.98248" style="fill: #87ceeb; stroke: #87ceeb"/>
     <use xlink:href="#me4dbd6fdd1" x="148.366658" y="191.613271" style="fill: #87ceeb; stroke: #87ceeb"/>
     <use xlink:href="#me4dbd6fdd1" x="152.595163" y="194.283005" style="fill: #87ceeb; stroke: #87ceeb"/>
     <use xlink:href="#me4dbd6fdd1" x="157.528418" y="190.739965" style="fill: #87ceeb; stroke: #87ceeb"/>
     <use xlink:href="#me4dbd6fdd1" x="162.461674" y="198.898201" style="fill: #87ceeb; stroke: #87ceeb"/>
     <use xlink:href="#me4dbd6fdd1" x="166.690179" y="206.38834" style="fill: #87ceeb; stroke: #87ceeb"/>
     <use xlink:href="#me4dbd6fdd1" x="171.623434" y="205.340459" style="fill: #87ceeb; stroke: #87ceeb"/>
     <use xlink:href="#me4dbd6fdd1" x="176.55669" y="218.875598" style="fill: #87ceeb; stroke: #87ceeb"/>
     <use xlink:href="#me4dbd6fdd1" x="180.785195" y="228.234542" style="fill: #87ceeb; stroke: #87ceeb"/>
     <use xlink:href="#me4dbd6fdd1" x="185.71845" y="227.976876" style="fill: #87ceeb; stroke: #87ceeb"/>
    </g>
   </g>
   <g id="line2d_32">
    <path d="M 80.005831 197.544161 
L 87.053339 201.891022 
L 94.100847 209.577845 
L 101.148354 215.440064 
L 108.195862 219.360831 
L 115.24337 233.863746 
L 122.290878 245.371784 
L 129.338386 236.12013 
L 136.385894 226.285327 
L 143.433402 218.63513 
L 150.48091 212.822881 
L 157.528418 209.279578 
L 164.575926 208.574285 
L 171.623434 210.552696 
L 178.670942 215.496365 
L 185.71845 234.073805 
L 192.765958 246.054953 
L 199.813466 260.526003 
L 206.860974 283.120401 
L 213.908482 283.236159 
" clip-path="url(#p15f31ea177)" style="fill: none; stroke: #000000; stroke-width: 1.5; stroke-linecap: square"/>
   </g>
   <g id="line2d_33">
    <path d="M 186.423201 225.510459 
L 189.946955 230.381767 
L 192.061208 233.611105 
L 194.17546 237.278273 
L 195.584962 240.155759 
L 196.994463 243.684838 
L 197.699214 245.881204 
L 198.403965 248.590074 
L 199.108716 252.219844 
L 199.813466 257.89013 
L 200.518217 268.949202 
L 201.222968 276.926071 
L 201.927719 278.103418 
L 202.63247 277.864861 
L 203.33722 277.287785 
L 204.041971 276.54415 
L 204.746722 275.631122 
L 205.451473 274.500253 
L 206.156224 273.075577 
L 206.860974 271.247892 
L 207.565725 268.867825 
L 208.270476 265.771017 
L 208.975227 261.890533 
L 211.089479 247.684497 
L 213.203732 234.044716 
L 214.613233 226.206707 
L 216.022735 219.420822 
L 217.432236 213.617922 
L 218.841738 208.70478 
L 220.25124 204.58514 
L 221.660741 201.167916 
L 223.070243 198.370308 
L 224.479744 196.118668 
L 225.889246 194.348339 
L 227.298748 193.002982 
L 228.708249 192.033705 
L 230.117751 191.398099 
L 231.527252 191.059302 
L 232.936754 190.985109 
L 234.346256 191.14718 
L 235.755757 191.520337 
L 237.165259 192.081984 
L 239.279511 193.233543 
L 241.393763 194.701441 
L 243.508016 196.430672 
L 246.327019 199.059137 
L 249.850773 202.726143 
L 254.079278 207.487718 
L 260.422035 215.028027 
L 266.764792 222.912818 
L 270.993297 228.54092 
L 273.8123 232.68115 
L 275.926553 236.198463 
L 277.336054 238.898078 
L 278.745556 242.103975 
L 279.450307 244.022184 
L 280.155057 246.285887 
L 280.859808 249.108034 
L 281.564559 252.960681 
L 282.26931 259.205421 
L 282.974061 271.074391 
L 283.678811 277.341665 
L 284.383562 278.10774 
L 285.088313 277.782886 
L 285.793064 277.174516 
L 286.497815 276.404767 
L 287.202565 275.459654 
L 287.907316 274.28602 
L 288.612067 272.803055 
L 289.316818 270.895131 
L 290.021569 268.407009 
L 290.726319 265.180089 
L 292.135821 256.599922 
L 294.954824 237.632033 
L 296.364326 229.351905 
L 297.773827 222.134065 
L 299.183329 215.932792 
L 300.592831 210.66113 
L 302.002332 206.22265 
L 303.411834 202.523564 
L 304.821335 199.47744 
L 306.230837 197.006811 
L 307.640339 195.043346 
L 309.04984 193.527348 
L 310.459342 192.406941 
L 311.868843 191.637136 
L 313.278345 191.178874 
L 314.687847 190.998112 
L 316.097348 191.064993 
L 317.50685 191.353094 
L 318.916351 191.83881 
L 320.325853 192.500822 
L 322.440105 193.782319 
L 324.554358 195.35796 
L 327.373361 197.826384 
L 330.192364 200.616652 
L 333.716118 204.421629 
L 338.649374 210.111392 
L 344.992131 217.767567 
L 350.630137 224.903224 
L 354.153891 229.71476 
L 356.268144 232.876614 
L 358.382396 236.422942 
L 359.791898 239.156476 
L 361.201399 242.422535 
L 361.90615 244.391071 
L 362.610901 246.732704 
L 363.315652 249.688774 
L 364.020403 253.814634 
L 364.725153 260.802604 
L 365.429904 273.004822 
L 366.134655 277.653092 
L 366.839406 278.087351 
L 367.544157 277.688811 
L 368.248907 277.049724 
L 368.953658 276.251592 
L 369.658409 275.270753 
L 370.36316 274.04924 
L 371.067911 272.500826 
L 371.772661 270.50281 
L 372.477412 267.894604 
L 373.182163 264.527754 
L 374.591665 255.756331 
L 377.410668 236.862104 
L 378.820169 228.675959 
L 380.229671 221.551205 
L 381.639172 215.436199 
L 383.048674 210.242325 
L 384.458176 205.873082 
L 385.867677 202.235213 
L 387.277179 199.243057 
L 388.68668 196.819968 
L 390.096182 194.89841 
L 391.505684 193.419418 
L 392.915185 192.331766 
L 394.324687 191.591032 
L 395.734188 191.158635 
L 397.14369 191.000937 
L 398.553192 191.088411 
L 399.962693 191.394909 
L 401.372195 191.897043 
L 403.486447 192.971342 
L 405.6007 194.374862 
L 407.714952 196.051154 
L 410.533955 198.624609 
L 414.057709 202.24371 
L 418.286214 206.970541 
L 423.92422 213.632134 
L 430.266978 221.443051 
L 432.38123 224.151039 
L 432.38123 224.151039 
" clip-path="url(#p15f31ea177)" style="fill: none; stroke-dasharray: 5.55,2.4; stroke-dashoffset: 0; stroke: #696969; stroke-width: 1.5"/>
   </g>
   <g id="patch_10">
    <path d="M 62.387061 303.64 
L 62.387061 177.14032 
" style="fill: none; stroke: #000000; stroke-width: 0.8; stroke-linejoin: miter; stroke-linecap: square"/>
   </g>
   <g id="patch_11">
    <path d="M 450 303.64 
L 450 177.14032 
" style="fill: none; stroke: #000000; stroke-width: 0.8; stroke-linejoin: miter; stroke-linecap: square"/>
   </g>
   <g id="patch_12">
    <path d="M 62.387061 303.64 
L 450 303.64 
" style="fill: none; stroke: #000000; stroke-width: 0.8; stroke-linejoin: miter; stroke-linecap: square"/>
   </g>
   <g id="patch_13">
    <path d="M 62.387061 177.14032 
L 450 177.14032 
" style="fill: none; stroke: #000000; stroke-width: 0.8; stroke-linejoin: miter; stroke-linecap: square"/>
   </g>
   <g id="legend_2">
    <g id="patch_14">
     <path d="M 381.6375 300.64 
L 445.8 300.64 
Q 447 300.64 447 299.44 
L 447 256.005625 
Q 447 254.805625 445.8 254.805625 
L 381.6375 254.805625 
Q 380.4375 254.805625 380.4375 256.005625 
L 380.4375 299.44 
Q 380.4375 300.64 381.6375 300.64 
z
" style="fill: #ffffff; opacity: 0.8; stroke: #cccccc; stroke-linejoin: miter"/>
    </g>
    <g id="line2d_34">
     <g>
      <use xlink:href="#m563d201c25" x="388.8375" y="259.664687" style="fill: #0000cd; stroke: #0000cd"/>
     </g>
    </g>
    <g id="text_24">
     <!-- training data -->
     <g transform="translate(399.6375 261.764687) scale(0.06 -0.06)">
      <use xlink:href="#DejaVuSans-74"/>
      <use xlink:href="#DejaVuSans-72" x="39.208984"/>
      <use xlink:href="#DejaVuSans-61" x="80.322266"/>
      <use xlink:href="#DejaVuSans-69" x="141.601562"/>
      <use xlink:href="#DejaVuSans-6e" x="169.384766"/>
      <use xlink:href="#DejaVuSans-69" x="232.763672"/>
      <use xlink:href="#DejaVuSans-6e" x="260.546875"/>
      <use xlink:href="#DejaVuSans-67" x="323.925781"/>
      <use xlink:href="#DejaVuSans-20" x="387.402344"/>
      <use xlink:href="#DejaVuSans-64" x="419.189453"/>
      <use xlink:href="#DejaVuSans-61" x="482.666016"/>
      <use xlink:href="#DejaVuSans-74" x="543.945312"/>
      <use xlink:href="#DejaVuSans-61" x="583.154297"/>
     </g>
    </g>
    <g id="line2d_35">
     <g>
      <use xlink:href="#me4dbd6fdd1" x="388.8375" y="268.471562" style="fill: #87ceeb; stroke: #87ceeb"/>
     </g>
    </g>
    <g id="text_25">
     <!-- validation data -->
     <g transform="translate(399.6375 270.571562) scale(0.06 -0.06)">
      <use xlink:href="#DejaVuSans-76"/>
      <use xlink:href="#DejaVuSans-61" x="59.179688"/>
      <use xlink:href="#DejaVuSans-6c" x="120.458984"/>
      <use xlink:href="#DejaVuSans-69" x="148.242188"/>
      <use xlink:href="#DejaVuSans-64" x="176.025391"/>
      <use xlink:href="#DejaVuSans-61" x="239.501953"/>
      <use xlink:href="#DejaVuSans-74" x="300.78125"/>
      <use xlink:href="#DejaVuSans-69" x="339.990234"/>
      <use xlink:href="#DejaVuSans-6f" x="367.773438"/>
      <use xlink:href="#DejaVuSans-6e" x="428.955078"/>
      <use xlink:href="#DejaVuSans-20" x="492.333984"/>
      <use xlink:href="#DejaVuSans-64" x="524.121094"/>
      <use xlink:href="#DejaVuSans-61" x="587.597656"/>
      <use xlink:href="#DejaVuSans-74" x="648.876953"/>
      <use xlink:href="#DejaVuSans-61" x="688.085938"/>
     </g>
    </g>
    <g id="line2d_36">
     <path d="M 382.8375 277.278437 
L 388.8375 277.278437 
L 394.8375 277.278437 
" style="fill: none; stroke: #000000; stroke-width: 1.5; stroke-linecap: square"/>
    </g>
    <g id="text_26">
     <!-- Simulation -->
     <g transform="translate(399.6375 279.378437) scale(0.06 -0.06)">
      <use xlink:href="#DejaVuSans-53"/>
      <use xlink:href="#DejaVuSans-69" x="63.476562"/>
      <use xlink:href="#DejaVuSans-6d" x="91.259766"/>
      <use xlink:href="#DejaVuSans-75" x="188.671875"/>
      <use xlink:href="#DejaVuSans-6c" x="252.050781"/>
      <use xlink:href="#DejaVuSans-61" x="279.833984"/>
      <use xlink:href="#DejaVuSans-74" x="341.113281"/>
      <use xlink:href="#DejaVuSans-69" x="380.322266"/>
      <use xlink:href="#DejaVuSans-6f" x="408.105469"/>
      <use xlink:href="#DejaVuSans-6e" x="469.287109"/>
     </g>
    </g>
    <g id="patch_15">
     <path d="M 382.8375 288.185312 
L 394.8375 288.185312 
L 394.8375 283.985312 
L 382.8375 283.985312 
z
" style="fill: #808080; fill-opacity: 0.2"/>
    </g>
    <g id="text_27">
     <!-- +/- std 0.424 -->
     <g transform="translate(399.6375 288.185312) scale(0.06 -0.06)">
      <use xlink:href="#DejaVuSans-2b"/>
      <use xlink:href="#DejaVuSans-2f" x="83.789062"/>
      <use xlink:href="#DejaVuSans-2d" x="117.480469"/>
      <use xlink:href="#DejaVuSans-20" x="153.564453"/>
      <use xlink:href="#DejaVuSans-73" x="185.351562"/>
      <use xlink:href="#DejaVuSans-74" x="237.451172"/>
      <use xlink:href="#DejaVuSans-64" x="276.660156"/>
      <use xlink:href="#DejaVuSans-20" x="340.136719"/>
      <use xlink:href="#DejaVuSans-30" x="371.923828"/>
      <use xlink:href="#DejaVuSans-2e" x="435.546875"/>
      <use xlink:href="#DejaVuSans-34" x="467.333984"/>
      <use xlink:href="#DejaVuSans-32" x="530.957031"/>
      <use xlink:href="#DejaVuSans-34" x="594.580078"/>
     </g>
    </g>
    <g id="line2d_37">
     <path d="M 382.8375 294.892187 
L 388.8375 294.892187 
L 394.8375 294.892187 
" style="fill: none; stroke-dasharray: 5.55,2.4; stroke-dashoffset: 0; stroke: #696969; stroke-width: 1.5"/>
    </g>
    <g id="text_28">
     <!-- True solution -->
     <g transform="translate(399.6375 296.992187) scale(0.06 -0.06)">
      <use xlink:href="#DejaVuSans-54"/>
      <use xlink:href="#DejaVuSans-72" x="46.333984"/>
      <use xlink:href="#DejaVuSans-75" x="87.447266"/>
      <use xlink:href="#DejaVuSans-65" x="150.826172"/>
      <use xlink:href="#DejaVuSans-20" x="212.349609"/>
      <use xlink:href="#DejaVuSans-73" x="244.136719"/>
      <use xlink:href="#DejaVuSans-6f" x="296.236328"/>
      <use xlink:href="#DejaVuSans-6c" x="357.417969"/>
      <use xlink:href="#DejaVuSans-75" x="385.201172"/>
      <use xlink:href="#DejaVuSans-74" x="448.580078"/>
      <use xlink:href="#DejaVuSans-69" x="487.789062"/>
      <use xlink:href="#DejaVuSans-6f" x="515.572266"/>
      <use xlink:href="#DejaVuSans-6e" x="576.753906"/>
     </g>
    </g>
   </g>
  </g>
  <g id="text_29">
   <!-- (5-150): NLL trainval -226.4862, NMSE obs test nan -->
   <g transform="translate(75.5025 16.030125) scale(0.12 -0.12)">
    <defs>
     <path id="DejaVuSans-28" d="M 1984 4856 
Q 1566 4138 1362 3434 
Q 1159 2731 1159 2009 
Q 1159 1288 1364 580 
Q 1569 -128 1984 -844 
L 1484 -844 
Q 1016 -109 783 600 
Q 550 1309 550 2009 
Q 550 2706 781 3412 
Q 1013 4119 1484 4856 
L 1984 4856 
z
" transform="scale(0.015625)"/>
     <path id="DejaVuSans-29" d="M 513 4856 
L 1013 4856 
Q 1481 4119 1714 3412 
Q 1947 2706 1947 2009 
Q 1947 1309 1714 600 
Q 1481 -109 1013 -844 
L 513 -844 
Q 928 -128 1133 580 
Q 1338 1288 1338 2009 
Q 1338 2731 1133 3434 
Q 928 4138 513 4856 
z
" transform="scale(0.015625)"/>
     <path id="DejaVuSans-3a" d="M 750 794 
L 1409 794 
L 1409 0 
L 750 0 
L 750 794 
z
M 750 3309 
L 1409 3309 
L 1409 2516 
L 750 2516 
L 750 3309 
z
" transform="scale(0.015625)"/>
     <path id="DejaVuSans-4e" d="M 628 4666 
L 1478 4666 
L 3547 763 
L 3547 4666 
L 4159 4666 
L 4159 0 
L 3309 0 
L 1241 3903 
L 1241 0 
L 628 0 
L 628 4666 
z
" transform="scale(0.015625)"/>
     <path id="DejaVuSans-4c" d="M 628 4666 
L 1259 4666 
L 1259 531 
L 3531 531 
L 3531 0 
L 628 0 
L 628 4666 
z
" transform="scale(0.015625)"/>
     <path id="DejaVuSans-36" d="M 2113 2584 
Q 1688 2584 1439 2293 
Q 1191 2003 1191 1497 
Q 1191 994 1439 701 
Q 1688 409 2113 409 
Q 2538 409 2786 701 
Q 3034 994 3034 1497 
Q 3034 2003 2786 2293 
Q 2538 2584 2113 2584 
z
M 3366 4563 
L 3366 3988 
Q 3128 4100 2886 4159 
Q 2644 4219 2406 4219 
Q 1781 4219 1451 3797 
Q 1122 3375 1075 2522 
Q 1259 2794 1537 2939 
Q 1816 3084 2150 3084 
Q 2853 3084 3261 2657 
Q 3669 2231 3669 1497 
Q 3669 778 3244 343 
Q 2819 -91 2113 -91 
Q 1303 -91 875 529 
Q 447 1150 447 2328 
Q 447 3434 972 4092 
Q 1497 4750 2381 4750 
Q 2619 4750 2861 4703 
Q 3103 4656 3366 4563 
z
" transform="scale(0.015625)"/>
     <path id="DejaVuSans-38" d="M 2034 2216 
Q 1584 2216 1326 1975 
Q 1069 1734 1069 1313 
Q 1069 891 1326 650 
Q 1584 409 2034 409 
Q 2484 409 2743 651 
Q 3003 894 3003 1313 
Q 3003 1734 2745 1975 
Q 2488 2216 2034 2216 
z
M 1403 2484 
Q 997 2584 770 2862 
Q 544 3141 544 3541 
Q 544 4100 942 4425 
Q 1341 4750 2034 4750 
Q 2731 4750 3128 4425 
Q 3525 4100 3525 3541 
Q 3525 3141 3298 2862 
Q 3072 2584 2669 2484 
Q 3125 2378 3379 2068 
Q 3634 1759 3634 1313 
Q 3634 634 3220 271 
Q 2806 -91 2034 -91 
Q 1263 -91 848 271 
Q 434 634 434 1313 
Q 434 1759 690 2068 
Q 947 2378 1403 2484 
z
M 1172 3481 
Q 1172 3119 1398 2916 
Q 1625 2713 2034 2713 
Q 2441 2713 2670 2916 
Q 2900 3119 2900 3481 
Q 2900 3844 2670 4047 
Q 2441 4250 2034 4250 
Q 1625 4250 1398 4047 
Q 1172 3844 1172 3481 
z
" transform="scale(0.015625)"/>
     <path id="DejaVuSans-2c" d="M 750 794 
L 1409 794 
L 1409 256 
L 897 -744 
L 494 -744 
L 750 256 
L 750 794 
z
" transform="scale(0.015625)"/>
     <path id="DejaVuSans-4d" d="M 628 4666 
L 1569 4666 
L 2759 1491 
L 3956 4666 
L 4897 4666 
L 4897 0 
L 4281 0 
L 4281 4097 
L 3078 897 
L 2444 897 
L 1241 4097 
L 1241 0 
L 628 0 
L 628 4666 
z
" transform="scale(0.015625)"/>
     <path id="DejaVuSans-45" d="M 628 4666 
L 3578 4666 
L 3578 4134 
L 1259 4134 
L 1259 2753 
L 3481 2753 
L 3481 2222 
L 1259 2222 
L 1259 531 
L 3634 531 
L 3634 0 
L 628 0 
L 628 4666 
z
" transform="scale(0.015625)"/>
     <path id="DejaVuSans-62" d="M 3116 1747 
Q 3116 2381 2855 2742 
Q 2594 3103 2138 3103 
Q 1681 3103 1420 2742 
Q 1159 2381 1159 1747 
Q 1159 1113 1420 752 
Q 1681 391 2138 391 
Q 2594 391 2855 752 
Q 3116 1113 3116 1747 
z
M 1159 2969 
Q 1341 3281 1617 3432 
Q 1894 3584 2278 3584 
Q 2916 3584 3314 3078 
Q 3713 2572 3713 1747 
Q 3713 922 3314 415 
Q 2916 -91 2278 -91 
Q 1894 -91 1617 61 
Q 1341 213 1159 525 
L 1159 0 
L 581 0 
L 581 4863 
L 1159 4863 
L 1159 2969 
z
" transform="scale(0.015625)"/>
    </defs>
    <use xlink:href="#DejaVuSans-28"/>
    <use xlink:href="#DejaVuSans-35" x="39.013672"/>
    <use xlink:href="#DejaVuSans-2d" x="102.636719"/>
    <use xlink:href="#DejaVuSans-31" x="138.720703"/>
    <use xlink:href="#DejaVuSans-35" x="202.34375"/>
    <use xlink:href="#DejaVuSans-30" x="265.966797"/>
    <use xlink:href="#DejaVuSans-29" x="329.589844"/>
    <use xlink:href="#DejaVuSans-3a" x="368.603516"/>
    <use xlink:href="#DejaVuSans-20" x="402.294922"/>
    <use xlink:href="#DejaVuSans-4e" x="434.082031"/>
    <use xlink:href="#DejaVuSans-4c" x="508.886719"/>
    <use xlink:href="#DejaVuSans-4c" x="564.599609"/>
    <use xlink:href="#DejaVuSans-20" x="620.3125"/>
    <use xlink:href="#DejaVuSans-74" x="652.099609"/>
    <use xlink:href="#DejaVuSans-72" x="691.308594"/>
    <use xlink:href="#DejaVuSans-61" x="732.421875"/>
    <use xlink:href="#DejaVuSans-69" x="793.701172"/>
    <use xlink:href="#DejaVuSans-6e" x="821.484375"/>
    <use xlink:href="#DejaVuSans-76" x="884.863281"/>
    <use xlink:href="#DejaVuSans-61" x="944.042969"/>
    <use xlink:href="#DejaVuSans-6c" x="1005.322266"/>
    <use xlink:href="#DejaVuSans-20" x="1033.105469"/>
    <use xlink:href="#DejaVuSans-2d" x="1064.892578"/>
    <use xlink:href="#DejaVuSans-32" x="1100.976562"/>
    <use xlink:href="#DejaVuSans-32" x="1164.599609"/>
    <use xlink:href="#DejaVuSans-36" x="1228.222656"/>
    <use xlink:href="#DejaVuSans-2e" x="1291.845703"/>
    <use xlink:href="#DejaVuSans-34" x="1323.632812"/>
    <use xlink:href="#DejaVuSans-38" x="1387.255859"/>
    <use xlink:href="#DejaVuSans-36" x="1450.878906"/>
    <use xlink:href="#DejaVuSans-32" x="1514.501953"/>
    <use xlink:href="#DejaVuSans-2c" x="1578.125"/>
    <use xlink:href="#DejaVuSans-20" x="1609.912109"/>
    <use xlink:href="#DejaVuSans-4e" x="1641.699219"/>
    <use xlink:href="#DejaVuSans-4d" x="1716.503906"/>
    <use xlink:href="#DejaVuSans-53" x="1802.783203"/>
    <use xlink:href="#DejaVuSans-45" x="1866.259766"/>
    <use xlink:href="#DejaVuSans-20" x="1929.443359"/>
    <use xlink:href="#DejaVuSans-6f" x="1961.230469"/>
    <use xlink:href="#DejaVuSans-62" x="2022.412109"/>
    <use xlink:href="#DejaVuSans-73" x="2085.888672"/>
    <use xlink:href="#DejaVuSans-20" x="2137.988281"/>
    <use xlink:href="#DejaVuSans-74" x="2169.775391"/>
    <use xlink:href="#DejaVuSans-65" x="2208.984375"/>
    <use xlink:href="#DejaVuSans-73" x="2270.507812"/>
    <use xlink:href="#DejaVuSans-74" x="2322.607422"/>
    <use xlink:href="#DejaVuSans-20" x="2361.816406"/>
    <use xlink:href="#DejaVuSans-6e" x="2393.603516"/>
    <use xlink:href="#DejaVuSans-61" x="2456.982422"/>
    <use xlink:href="#DejaVuSans-6e" x="2518.261719"/>
   </g>
  </g>
 </g>
 <defs>
  <clipPath id="p8c623fdb56">
   <rect x="62.387061" y="34.56" width="387.612939" height="126.49968"/>
  </clipPath>
  <clipPath id="p15f31ea177">
   <rect x="62.387061" y="177.14032" width="387.612939" height="126.49968"/>
  </clipPath>
 </defs>
</svg>
